<svg width="56" height="40" viewBox="0 0 56 40" fill="none" xmlns="http://www.w3.org/2000/svg">
<g id="tools">
<path id="Vector" d="M41.1882 5.48875C40.6932 5.41804 40.1982 5.63017 40.0568 6.05444L38.2183 10.5799L37.0162 6.83225C36.8748 6.40799 36.4505 6.12515 36.0263 6.12515C35.602 6.12515 35.1778 6.40799 35.0363 6.83225L33.8343 10.5799L31.8544 6.05444C31.7129 5.63017 31.218 5.41804 30.723 5.48875C30.228 5.55946 29.9452 5.98373 29.8745 6.4787L29.8745 16.3782C29.8745 18.9238 31.6422 20.9744 33.9757 21.4694L33.0564 35.3994C32.9857 36.1772 33.3393 36.955 33.905 37.5207C34.4706 38.0864 35.2485 38.4399 36.0263 38.3692C36.8041 38.4399 37.5819 38.0864 38.1476 37.5207C38.7133 36.955 39.0668 36.1772 39.0668 35.3287L37.9355 21.3279C38.9961 21.1158 39.774 20.6208 40.4811 19.9137C41.4003 18.9945 41.966 17.7217 41.966 16.3075L41.966 6.40799C41.966 5.98373 41.6831 5.55946 41.1882 5.48875ZM37.0162 35.3994C37.0162 35.9651 36.592 36.3893 36.0263 36.3893C35.7434 36.3893 35.5313 36.3186 35.3192 36.1065C35.107 35.8943 35.0363 35.6822 34.9656 35.4701L35.9556 22.6007L37.0162 35.3994ZM39.9861 16.3075C39.9861 18.0045 38.5719 19.4188 36.8041 19.4895H35.107C33.41 19.4895 31.9958 18.0753 31.9251 16.3075V11.3577L32.7736 13.4791C32.9857 13.974 33.41 14.2569 33.905 14.1862C34.3999 14.1155 34.8242 13.8326 34.9656 13.4083L35.8849 10.5092L36.9455 13.2669C37.0869 13.6912 37.5112 14.1155 37.9355 14.1155C38.4304 14.1862 38.9254 13.8326 39.0668 13.4083L39.9154 11.287L39.9861 16.3075Z" fill="white"/>
<path id="Vector_2" d="M18.5 4.90824C17.047 4.90824 15.66 5.50265 14.7354 6.55939C13.3484 8.21054 12.5559 10.324 12.4898 12.5035C12.4898 15.6737 14.141 18.6458 16.8489 20.297L15.7261 35.8178C15.66 36.5443 15.9903 37.2708 16.5186 37.7991C17.047 38.3275 17.7735 38.6577 18.5 38.5917C19.2265 38.6577 19.953 38.3275 20.4814 37.7991C21.0097 37.2708 21.34 36.5443 21.34 35.7517L20.1512 20.297C20.8116 19.9007 21.34 19.5044 21.8683 18.976C23.5195 17.3249 24.5102 15.0133 24.5102 12.5035C24.5102 10.258 23.7176 8.14449 22.2646 6.55939C21.34 5.50265 19.953 4.90824 18.5 4.90824ZM19.4246 35.8178C19.4246 36.3461 19.0284 36.7424 18.5 36.7424C18.2358 36.7424 18.0377 36.6764 17.8395 36.4782C17.6414 36.2801 17.5754 36.0819 17.5093 35.8838L18.434 23.4672L19.4246 35.8178ZM22.5949 12.5696C22.5949 15.3435 21.0758 17.7872 18.6321 19.0421L18.434 19.1081L18.2358 19.0421C15.7921 17.7872 14.2731 15.3435 14.2731 12.5696C14.2731 10.8524 14.9335 9.13518 15.9903 7.81426C16.5186 7.1538 17.4433 6.75753 18.3679 6.75753C19.2926 6.75753 20.0851 7.1538 20.7456 7.81426C22.0004 9.06914 22.6609 10.7863 22.5949 12.5696Z" fill="white"/>
</g>
</svg>
